<?xml version="1.0" encoding="UTF-8"?> <svg xmlns="http://www.w3.org/2000/svg" width="50" height="50" viewBox="0 0 50 50" fill="none"><g clip-path="url(#clip0_1214_3)"><path fill-rule="evenodd" clip-rule="evenodd" d="M25 50C31.6304 50 37.9893 47.3661 42.6777 42.6777C47.3661 37.9893 50 31.6304 50 25C50 18.3696 47.3661 12.0107 42.6777 7.32233C37.9893 2.63392 31.6304 0 25 0C18.3696 0 12.0107 2.63392 7.32233 7.32233C2.63392 12.0107 0 18.3696 0 25C0 31.6304 2.63392 37.9893 7.32233 42.6777C12.0107 47.3661 18.3696 50 25 50ZM23.6094 16.15C23.1387 15.836 22.5917 15.6557 22.0266 15.6282C21.4615 15.6008 20.8996 15.7272 20.4007 15.9941C19.9019 16.261 19.4849 16.6584 19.1941 17.1437C18.9034 17.6291 18.7499 18.1842 18.75 18.75V31.25C18.7499 31.8158 18.9034 32.3709 19.1941 32.8563C19.4849 33.3416 19.9019 33.739 20.4007 34.0059C20.8996 34.2728 21.4615 34.3992 22.0266 34.3718C22.5917 34.3443 23.1387 34.164 23.6094 33.85L32.9844 27.6C33.4124 27.3146 33.7633 26.928 34.006 26.4744C34.2487 26.0209 34.3757 25.5144 34.3757 25C34.3757 24.4856 34.2487 23.9791 34.006 23.5256C33.7633 23.072 33.4124 22.6854 32.9844 22.4L23.6094 16.15Z" fill="#26A4E3"></path></g><defs><clipPath id="clip0_1214_3"><rect width="50" height="50" fill="white"></rect></clipPath></defs></svg> 