<?xml version="1.0" encoding="UTF-8"?> <svg xmlns="http://www.w3.org/2000/svg" id="Layer_1" data-name="Layer 1" viewBox="0 0 1080 314.8"> <defs> <style> .cls-1 { fill: #5aab29; } </style> </defs> <g> <path class="cls-1" d="M103.96,277.62v-84.48h14.74c7.04,0,12.75,6.13,12.75,13.69v105.52h-15.66c-12.86,0-24.92-6.68-32.38-17.92l-42.19-63.62v81.54h-13.82c-7.64,0-13.83-6.65-13.83-14.84v-104.37h14.56c12.96,0,25.11,6.79,32.55,18.18l43.27,66.29Z"></path> <path class="cls-1" d="M243.71,264.25h-72.46v22.34h60.69c6.83,0,12.37,5.95,12.37,13.28v12.48h-102.84v-103.59c0-8.63,6.52-15.62,14.55-15.62h87.98v12.48c0,7.34-5.54,13.28-12.37,13.28h-60.39v22.34h72.46v22.99Z"></path> <path class="cls-1" d="M340.47,312.36h-32.2l-53.93-119.21h16.45c9.88,0,18.85,6.18,22.97,15.82l30.46,71.26,31.16-71.45c4.16-9.54,13.08-15.63,22.89-15.63h17.04l-54.84,119.21Z"></path> <path class="cls-1" d="M435.11,272.89v39.47h-29.77v-119.21h69.57c22.33,0,42.53,5.71,42.53,37.18,0,13.54-3.8,22.51-10.33,28.21,6.84,3.75,11.09,10.11,11.09,20.87v32.94h-14.99c-8.17,0-14.79-7.11-14.79-15.87v-13.48c0-7.66-1.97-10.11-11.54-10.11h-41.77Zm40.86-53.49h-40.86v29.52h40.86c7.14,0,12.91-2.77,12.91-14.84s-5.77-14.68-12.91-14.68Z"></path> <path class="cls-1" d="M528.23,252.83c0-45.01,10.03-61.97,59.09-61.97s59.09,16.96,59.09,61.97-10.03,61.97-59.09,61.97-59.09-16.96-59.09-61.97Zm29.32,0c0,26.58,4.1,35.55,29.77,35.55s29.77-8.97,29.77-35.55-4.1-35.55-29.77-35.55-29.77,8.97-29.77,35.55Z"></path> <path class="cls-1" d="M689.25,264.41c-25.22,0-32.81-11.74-32.81-36.04s6.99-35.23,32.81-35.23h70.94v12.36c0,7.94-6,14.38-13.4,14.38h-51.47c-6.84,0-9.27,2.94-9.27,10.6s2.43,10.44,9.27,10.44h35.85c25.22,0,32.66,11.25,32.66,35.39s-7.29,36.04-32.66,36.04h-73.67v-12.2c0-7.94,6-14.38,13.4-14.38h54.35c6.68,0,9.27-3.1,9.27-10.93s-2.89-10.44-9.27-10.44h-36Z"></path> <path class="cls-1" d="M803.63,286.59h56.9c6.49,0,11.76,5.65,11.76,12.62v13.15h-98.43v-119.21h29.77v93.44Z"></path> <path class="cls-1" d="M979.54,312.36l-30.23-79.09v65.37c0,7.58-5.72,13.72-12.78,13.72h-14.41v-119.21h28.13c6.96,0,13.23,4.52,15.87,11.45l28,73.68,28.86-73.85c2.67-6.83,8.9-11.28,15.8-11.28h27.65v119.21h-14.41c-7.06,0-12.78-6.14-12.78-13.72v-65.05l-30.53,78.77h-29.17Z"></path> </g> <g> <path class="cls-1" d="M888.74,170.62c-53.69-23.74-95.81-48.25-91.46-113.83,52.75,8.07,74.73,35.68,89.88,98.01-8.56-11.82-22.09-28.37-37.56-39.48-.31-.76,28.29,30.2,39.14,55.31Z"></path> <path class="cls-1" d="M979.97,83.79c-14.24,26.07-47.69,52.24-66.43,65.57,8.79-32.12,30.36-63.96,30.71-64.49-25.34,25.11-40.34,62.66-44.04,72.69,2.11-68.14,7.33-131.29,86.48-157.56,0,0,13.59,46.58-6.72,83.79Z"></path> <path class="cls-1" d="M908.6,312.67h-25l6.03-62.26c5.64-58.17,2.58-117-10.16-174.05,15.34,52.16,22.79,108.19,27.93,162.25,2.74,32.89,3.27,48.89,1.2,74.06Z"></path> </g> </svg> 